<svg id="Layer_1" data-name="Layer 1" xmlns="http://www.w3.org/2000/svg" viewBox="0 0 738.89 132.8"><defs><style>.cls-1{fill:#fff;}</style></defs><title>randIM</title><path class="cls-1" d="M274.06,569.47a5.56,5.56,0,0,1,1.49-5.59c7.64-7.64,11.37-19.37,11.37-35,0-37.44-19.56-45.26-53.83-45.26H186.52a5.89,5.89,0,0,0-6,6V602.44a5.89,5.89,0,0,0,6,6h31.29a5.88,5.88,0,0,0,6-6V582.13a5.89,5.89,0,0,1,6-6,5.74,5.74,0,0,1,5.59,4.66l5.22,22.91a5.75,5.75,0,0,0,5.58,4.66H277.6a5.8,5.8,0,0,0,5.59-7.45ZM234.2,542.08h-4.65a5.87,5.87,0,0,1-6-6V523.65a5.88,5.88,0,0,1,6-6h3.54c6.89,0,10.24,4.1,10.24,12.3C243.33,538,240.35,542.08,234.2,542.08Z" transform="translate(-180.56 -483.6)"/><path class="cls-1" d="M407.8,598.71l-24.4-109a8.18,8.18,0,0,0-7.83-6.15H322.86a7.81,7.81,0,0,0-7.64,6.15l-24,109.15a7.79,7.79,0,0,0,7.63,9.5H325.1a7.77,7.77,0,0,0,7.63-6.34l.37-1.67a7.84,7.84,0,0,1,7.83-6.34h15.83a7.94,7.94,0,0,1,7.64,6l.56,2.43a7.94,7.94,0,0,0,7.63,6h27.57A7.88,7.88,0,0,0,407.8,598.71Zm-58.49-37.63a7.89,7.89,0,0,1-7.82-9.12l5.58-34.46h4.66l5.4,34.46A7.89,7.89,0,0,1,349.31,561.08Z" transform="translate(-180.56 -483.6)"/><path class="cls-1" d="M523.65,483.6H496.08a7.87,7.87,0,0,0-7.82,7.82v26.82a3.78,3.78,0,0,1-3.91,3.73,3.9,3.9,0,0,1-3.17-1.68l-22-33a7.82,7.82,0,0,0-6.7-3.72H422.32a7.87,7.87,0,0,0-7.82,7.82V600.57a7.87,7.87,0,0,0,7.82,7.83h27.57a7.87,7.87,0,0,0,7.82-7.83V571.14a3.81,3.81,0,0,1,3.91-3.91,3.47,3.47,0,0,1,3.17,1.86l21.79,35.21a7.5,7.5,0,0,0,6.89,4.1h30.18a7.87,7.87,0,0,0,7.82-7.83V491.42A7.87,7.87,0,0,0,523.65,483.6Z" transform="translate(-180.56 -483.6)"/><path class="cls-1" d="M595.35,483.6H550.28a7.56,7.56,0,0,0-7.64,7.64V600.76a7.56,7.56,0,0,0,7.64,7.64h46.94c43,0,58.67-22.73,58.67-63.89C655.89,502,638,483.6,595.35,483.6Zm-1.86,89.59a7.55,7.55,0,0,1-7.63-7.64V526.44a7.56,7.56,0,0,1,7.63-7.64c8,0,13,1.86,15.28,5.59,2.42,3.73,3.53,11.18,3.53,22.35C612.3,561.83,611.19,573.19,593.49,573.19Z" transform="translate(-180.56 -483.6)"/><path class="cls-1" d="M752.93,483.6H724.24a7.39,7.39,0,0,0-7.26,7.26V601a7.44,7.44,0,0,0,7.26,7.45h28.69a7.44,7.44,0,0,0,7.26-7.45V490.86A7.39,7.39,0,0,0,752.93,483.6Z" transform="translate(-180.56 -483.6)"/><path class="cls-1" d="M911.62,483.6H859.84a8,8,0,0,0-7.64,6.52L849,509.49a4.21,4.21,0,0,1-8.2.19l-3.91-19.93a7.79,7.79,0,0,0-7.64-6.15h-50.1a7.86,7.86,0,0,0-7.82,7.82V600.57a7.87,7.87,0,0,0,7.82,7.83h27.57a7.87,7.87,0,0,0,7.82-7.83V544.13h2l9.5,56.44a7.93,7.93,0,0,0,7.63,6.52h23.1a7.94,7.94,0,0,0,7.64-6.52l9.68-56.44h2.05v56.44a7.87,7.87,0,0,0,7.82,7.83h27.57a7.87,7.87,0,0,0,7.83-7.83V491.42A7.87,7.87,0,0,0,911.62,483.6Z" transform="translate(-180.56 -483.6)"/><path class="cls-1" d="M702.08,571.33h-33.9a4.21,4.21,0,0,0-4.28,4.28v28.5a4.22,4.22,0,0,0,4.28,4.29h21.73l11.46,7.81a1.08,1.08,0,0,0,1.69-.9l0-7a4.18,4.18,0,0,0,3.34-4.18v-28.5A4.21,4.21,0,0,0,702.08,571.33ZM675,604a4,4,0,1,1,4-4A4,4,0,0,1,675,604Zm10.14-10.14a4,4,0,1,1,4-4A4,4,0,0,1,685.13,593.83Zm9.43-9.43a4,4,0,1,1,4-4A4,4,0,0,1,694.56,584.4Z" transform="translate(-180.56 -483.6)"/></svg>