<svg id="Layer_1" data-name="Layer 1" xmlns="http://www.w3.org/2000/svg" viewBox="0 0 718.45 800"><defs><style>.cls-1{fill:#d84a68;}</style></defs><title>dice</title><path class="cls-1" d="M357.36,727.25,569.79,800l186-186-213.89-71.3ZM453,715.89c-11.25,11.25-29.59,16.12-41,10.87s-11.47-18.61-.21-29.87,29.59-16.12,41-10.87S464.27,704.64,453,715.89Zm68.6,24c-11.26,11.25-29.59,16.12-41,10.87s-11.47-18.62-.21-29.87,29.58-16.12,41-10.87S532.87,728.66,521.62,739.92Zm138.31-107.6c11.25-11.25,29.58-16.12,41-10.87s11.47,18.62.22,29.87-29.58,16.12-41,10.87S648.68,643.58,659.93,632.32Zm-68.4-22.48c11.25-11.25,29.59-16.12,41-10.87s11.48,18.61.22,29.87-29.59,16.12-41,10.87S580.28,621.09,591.53,609.84ZM589.8,732.53c11.37,5.25,11.47,18.62.21,29.87s-29.58,16.12-41,10.87-11.47-18.61-.22-29.86S578.42,727.29,589.8,732.53Zm-25.91-157.6c11.37,5.25,11.48,18.62.22,29.87s-29.59,16.12-41,10.87-11.47-18.61-.21-29.87S552.52,569.69,563.89,574.93Z" transform="translate(-40.78)"/><path class="cls-1" d="M759.22,588.33,689,377.62,478.28,307.38l70.24,210.69ZM602.76,423.11c7.87-7.87,23.68-4.83,35.32,6.81s14.69,27.45,6.82,35.32-23.69,4.82-35.32-6.81S594.88,431,602.76,423.11Z" transform="translate(-40.78)"/><path class="cls-1" d="M255.19,0,56.52,99.33l198.66,99.32L453.84,99.33Zm0,119.48c-16.46,0-29.8-9-29.8-20.15s13.34-20.16,29.8-20.16,29.8,9,29.8,20.16S271.64,119.48,255.19,119.48Z" transform="translate(-40.78)"/><path class="cls-1" d="M306.25,380.84c9.49-3.5,17.43,2,20.17,12.65l119-119,24.17,8.06V119.93L267.91,220.77V452l20.39-20.39A28.57,28.57,0,0,1,285,417.5C285,401.58,294.51,385.17,306.25,380.84ZM436,164c11.75-4.33,21.27,5.06,21.27,21s-9.52,32.32-21.27,36.65-21.28-5.06-21.28-21S424.26,168.32,436,164ZM375.39,268.08c11.75-4.33,21.28,5.06,21.28,21s-9.53,32.32-21.28,36.65-21.27-5.05-21.27-21S363.65,272.41,375.39,268.08ZM285,264.63c0-15.91,9.53-32.32,21.28-36.65s21.27,5.06,21.27,21S318,281.27,306.25,285.6,285,280.54,285,264.63Z" transform="translate(-40.78)"/><path class="cls-1" d="M40.78,382.93l198.81,97.38,2.85-2.85V220.77L40.78,119.93Zm162.84-2.09c11.75,4.33,21.27,20.74,21.27,36.65s-9.52,25.3-21.27,21-21.28-20.75-21.28-36.66S191.87,376.51,203.62,380.84Zm-62-116c11.76,4.33,21.28,20.74,21.28,36.65s-9.52,25.29-21.28,21-21.27-20.74-21.27-36.65S129.87,260.53,141.61,264.87ZM77.8,164c11.75,4.33,21.27,20.74,21.27,36.66s-9.52,25.29-21.27,21S56.52,200.87,56.52,185,66,159.66,77.8,164Z" transform="translate(-40.78)"/><path class="cls-1" d="M452.57,310.82l-186,186,72.76,212.45L523.87,524.7ZM373.15,639.17c-11.25,11.25-24.63,11.15-29.87-.22s-.38-29.72,10.87-41,24.63-11.16,29.87.21S384.4,627.92,373.15,639.17ZM435.2,418.68c-11.25,11.25-24.63,11.15-29.87-.21s-.37-29.72,10.88-41,24.63-11.15,29.87.21S446.45,407.43,435.2,418.68Z" transform="translate(-40.78)"/></svg>