<?xml version="1.0" encoding="utf-8"?>
<!-- Generator: Adobe Illustrator 26.3.1, SVG Export Plug-In . SVG Version: 6.00 Build 0)  -->
<svg version="1.1"
	 id="svg50" xmlns:cc="http://creativecommons.org/ns#" xmlns:svg="http://www.w3.org/2000/svg" xmlns:sodipodi="http://sodipodi.sourceforge.net/DTD/sodipodi-0.dtd" xmlns:rdf="http://www.w3.org/1999/02/22-rdf-syntax-ns#" xmlns:inkscape="http://www.inkscape.org/namespaces/inkscape" sodipodi:docname="noun_Celebration_1857239.svg" xmlns:dc="http://purl.org/dc/elements/1.1/"
	 xmlns="http://www.w3.org/2000/svg" xmlns:xlink="http://www.w3.org/1999/xlink" x="0px" y="0px" viewBox="0 0 100 100"
	 style="enable-background:new 0 0 100 100;" xml:space="preserve">
<style type="text/css">
	.st0{fill:#D84A68;}
</style>
<sodipodi:namedview  bordercolor="#666666" borderopacity="1" gridtolerance="10" guidetolerance="10" id="namedview52" inkscape:current-layer="svg50" inkscape:cx="99.827975" inkscape:cy="95.488591" inkscape:measure-end="0,0" inkscape:measure-start="0,0" inkscape:pageopacity="0" inkscape:pageshadow="2" inkscape:window-height="1048" inkscape:window-maximized="1" inkscape:window-width="1920" inkscape:window-x="0" inkscape:window-y="16" inkscape:zoom="2.085965" objecttolerance="10" pagecolor="#ffffff" showgrid="false">
	</sodipodi:namedview>
<g id="g4555" transform="matrix(0.19865478,0,0,0.19865478,-1.3264065,105.99098)">
	<g id="g10" transform="translate(0,-540)">
		<rect id="rect2" x="279.5" y="52.3" class="st0" width="10.6" height="10.6"/>
		<rect id="rect4" x="352.7" y="87.8" class="st0" width="10.6" height="10.6"/>
		<rect id="rect6" x="362.5" y="277.4" class="st0" width="10.6" height="10.6"/>
		<rect id="rect8" x="395.2" y="197.8" class="st0" width="10.6" height="10.6"/>
	</g>
	<path id="path12" inkscape:connector-curvature="0" class="st0" d="M288.7-200.4c12.7,21.3,14.8,34.6,11.4,38.1
		c-0.2,0.2-0.6,0.5-1,0.7l-1.1,0.4c-4.3,1.2-14.2,0-32.1-10.2c-19.9-11.3-43.1-29.7-65.3-51.9c-22.2-22.2-40.6-45.4-51.9-65.3
		c-8.9-15.8-11-25.4-10.5-30.4l1.5-3.9c2.7-2.6,13.7-3.1,37.8,11.3l6.1-10.3c-25.3-15.1-43.5-18.4-52.5-9.4
		c-2.5,2.5-4.1,5.8-4.7,9.6L28.2-61.8c-1.2,3.2-0.4,6.7,2,9.1c1.6,1.6,3.8,2.5,6.1,2.5c1,0,2-0.2,3-0.6l259.7-98l3.2-1.2
		c0.5-0.2,0.9-0.3,1.4-0.5l2.3-0.9l-0.1-0.2c1-0.6,2-1.4,2.8-2.2c9-9,5.7-27.2-9.6-52.7L288.7-200.4z M276.4-153.1L115.1-92.2
		c-23.4-2.9-42.5-11.3-55.5-18.8l14.7-38.8c17.1,10.2,45.2,22.8,80.1,22.8c29.7,0,64.3-9.1,101.2-36.5
		C262.9-159.2,269.9-155.6,276.4-153.1z M78.6-161.3l14.2-37.6c12.1,8.4,31.8,18.3,57.4,18.3c17.4,0,37.5-4.6,59.8-17.4
		c11.6,10.3,23.4,19.7,34.8,27.4C170.1-117.6,106.5-144.1,78.6-161.3z M200.6-206.6c-49.9,26.9-86.8,8.3-103.4-4l11.7-31
		c8.2,5.5,19.7,10.6,34.2,10.6c8.4,0,17.9-1.7,28.3-6.1c6.4,7.4,13.3,14.9,20.7,22.2C194.9-212.1,197.8-209.3,200.6-206.6z
		 M138.2-282.8c6.4,11.3,14.9,23.5,25,36c-23.3,8.4-40.3,0.8-50-6.3l17.2-45.6C132.4-293.8,135-288.5,138.2-282.8z M55.3-99.7
		c9.9,5.6,22.9,11.5,38.4,15.6L42.1-64.6L55.3-99.7z"/>
	<g id="g44" transform="translate(0,-540)">
		<path id="path14" inkscape:connector-curvature="0" class="st0" d="M386.7,113l13.4,4.2l4.2,13.4c0.7,2.2,2.6,3.9,4.9,4.2
			c0.3,0.1,0.6,0.1,1,0.1c2,0,3.8-0.9,5-2.6l8.1-11.4l14,0.2c2.3,0,4.5-1.3,5.5-3.3c1.1-2.1,0.9-4.6-0.5-6.5l-8.4-11.2l4.5-13.3l0,0
			c0.8-2.2,0.2-4.6-1.5-6.3c-1.7-1.7-4.1-2.2-6.3-1.5l-13.3,4.5L406,75c-1.9-1.4-4.4-1.6-6.5-0.6c-2.1,1.1-3.4,3.2-3.4,5.6l0.2,14
			l-11.4,8.1c-1.9,1.4-2.9,3.7-2.5,6S384.4,112.3,386.7,113z M405.8,102.1c1.6-1.2,2.6-3.1,2.6-5.1l-0.1-5.2l4.2,3.1
			c1.6,1.2,3.7,1.6,5.7,0.9l4.9-1.7l-1.7,5c-0.6,1.9-0.3,4,0.9,5.6l3.1,4.2l-5.2-0.1c-2,0-3.9,0.9-5.1,2.6l-3,4.3l-1.5-5
			c-0.6-1.9-2.1-3.5-4-4.1l-5-1.6L405.8,102.1z"/>
		<path id="path16" inkscape:connector-curvature="0" class="st0" d="M483.7,325.6c-1.1-2.1-3.2-3.4-5.6-3.4l-18.6,0.2l-10.8-15.2
			c-1.4-1.9-3.7-2.9-6-2.5c-2.3,0.4-4.2,2-4.9,4.3l-5.5,17.8l-17.8,5.5c-2.3,0.7-3.9,2.6-4.3,4.9s0.6,4.6,2.5,6l15.2,10.8l-0.2,18.6
			c0,2.4,1.3,4.5,3.4,5.6c0.9,0.5,1.9,0.7,2.8,0.7c1.3,0,2.6-0.4,3.7-1.2l14.9-11.2l17.7,6c2.2,0.8,4.7,0.2,6.4-1.5
			c1.7-1.7,2.2-4.1,1.5-6.4l-6-17.7l11.1-14.9C484.5,330.2,484.7,327.7,483.7,325.6L483.7,325.6z M459.6,348l3.2,9.4l-9.4-3.2
			c-1.9-0.7-4.1-0.3-5.7,0.9l-7.9,5.9l0.1-9.9c0-2-0.9-4-2.6-5.1l-8.1-5.7l9.5-2.9c1.9-0.6,3.4-2.1,4.1-4.1l2.9-9.5l5.7,8.1
			c1.2,1.7,3.1,2.7,5.1,2.6l9.9-0.1l-5.9,7.9C459.3,344,458.9,346.1,459.6,348z"/>
		<path id="path18" inkscape:connector-curvature="0" class="st0" d="M142.3,64l17.2,12.2l-0.3,21.1c0,2.4,1.3,4.5,3.4,5.6
			c0.9,0.5,1.9,0.7,2.8,0.7c1.3,0,2.6-0.4,3.7-1.2l16.9-12.6l20,6.8c2.2,0.8,4.7,0.2,6.4-1.5c1.7-1.7,2.3-4.1,1.5-6.4l-6.8-20
			l12.6-16.9c1.4-1.9,1.6-4.4,0.6-6.5s-3.2-3.4-5.6-3.4l-21.1,0.3l-12.2-17.2c-1.4-1.9-3.7-2.9-6-2.5c-2.3,0.4-4.2,2-5,4.3
			l-6.3,20.2L144.1,53c-2.3,0.7-3.9,2.6-4.3,5C139.4,60.3,140.4,62.6,142.3,64z M170.7,57.3c1.9-0.6,3.5-2.1,4.1-4.1l3.7-11.9
			l7.2,10.1c1.2,1.6,3.1,2.6,5.1,2.6c0,0,0,0,0,0l12.4-0.2l-7.4,10c-1.2,1.6-1.6,3.8-0.9,5.7l4,11.8l-11.8-4
			c-1.9-0.7-4.1-0.3-5.7,0.9l-10,7.4l0.2-12.4c0-2-0.9-4-2.6-5.2L158.8,61L170.7,57.3z"/>
		<path id="path20" inkscape:connector-curvature="0" class="st0" d="M348.7,243.2l2,11.8c26-4.5,52.6-2.4,77,5.9l3.9-11.4
			C405.3,240.6,376.7,238.4,348.7,243.2z"/>
		<path id="path22" inkscape:connector-curvature="0" class="st0" d="M238.5,307.4l8.5,8.5l13.9-13.9c19.9-19.9,44.5-34.6,71.1-42.5
			l-3.4-11.5c-28.6,8.5-54.9,24.2-76.2,45.5L238.5,307.4z"/>
		<path id="path24" inkscape:connector-curvature="0" class="st0" d="M273.4,106.3c-1.4-6.9-3.3-13.8-5.6-20.5l-11.4,3.9
			c2.1,6.2,3.8,12.6,5.2,19L273.4,106.3z"/>
		<path id="path26" inkscape:connector-curvature="0" class="st0" d="M275.4,118.8l-11.9,1.5c5.2,41.2-6.7,84.5-32.6,118.7l9.6,7.2
			C268.2,209.5,281,163.1,275.4,118.8z"/>
		<path id="path28" inkscape:connector-curvature="0" class="st0" d="M215.5,256.5l-13.9,13.9l8.5,8.5L224,265c2-2,3.9-4,5.8-6.1
			l-8.9-8.1C219.2,252.8,217.4,254.7,215.5,256.5z"/>
		<path id="path30" inkscape:connector-curvature="0" class="st0" d="M371.5,319.2c9.1,2.8,18.2,6.4,27.1,10.9l5.4-10.7
			c-9.5-4.8-19.3-8.7-29-11.6L371.5,319.2z"/>
		<path id="path32" inkscape:connector-curvature="0" class="st0" d="M258.2,328.7l-9.5,9.5l8.5,8.5l9.5-9.5
			c20.6-20.6,52.8-28.7,88.2-22.1l2.2-11.8C317.7,296,281.7,305.3,258.2,328.7z"/>
		<path id="path34" inkscape:connector-curvature="0" class="st0" d="M197.9,113.2l-10.7,5.4c4.5,9.1,8.2,18.3,11,27.5l11.5-3.5
			C206.7,132.7,202.7,122.9,197.9,113.2z"/>
		<path id="path36" inkscape:connector-curvature="0" class="st0" d="M170.5,260l8.5,8.5l9.5-9.5c23.5-23.5,32.7-59.5,25.4-98.9
			l-11.8,2.2c6.6,35.4-1.5,67.6-22.1,88.2L170.5,260z"/>
		
			<rect id="rect38" x="291.7" y="160.8" transform="matrix(0.7071 -0.7071 0.7071 0.7071 -15.3538 296.6161)" class="st0" width="117.3" height="12"/>
		
			<rect id="rect40" x="230.3" y="241.9" transform="matrix(0.7071 -0.7071 0.7071 0.7071 -96.3858 263.055)" class="st0" width="78.1" height="12"/>
		
			<rect id="rect42" x="203.1" y="291" transform="matrix(0.7071 -0.7071 0.7071 0.7071 -145.5442 242.693)" class="st0" width="34.1" height="12"/>
	</g>
</g>
</svg>
